Coordinates
version=1
nRows=15
nColumns=34
inDegrees=yes

Units are S.I. units (second, meters, Newtons, ...)
If the header above contains a line with 'inDegrees', this indicates whether rotational values are in degrees (yes) or radians (no).

endheader
time	pelvis_tilt	pelvis_list	pelvis_rotation	pelvis_tx	pelvis_ty	pelvis_tz	hip_flexion_r	hip_adduction_r	hip_rotation_r	knee_angle_r	ankle_angle_r	subtalar_angle_r	mtp_angle_r	hip_flexion_l	hip_adduction_l	hip_rotation_l	knee_angle_l	ankle_angle_l	subtalar_angle_l	mtp_angle_l	lumbar_extension	lumbar_bending	lumbar_rotation	arm_flex_r	arm_add_r	arm_rot_r	elbow_flex_r	pro_sup_r	arm_flex_l	arm_add_l	arm_rot_l	elbow_flex_l	pro_sup_l
      3.50000000	     -5.94013553	      0.32620517	     -4.42380973	     -0.02752105	      1.27588472	     -0.08341432	      0.20152596	      1.07742984	      8.19913859	      1.04024519	     11.82584729	     -0.59164781	      0.00000000	      1.79735439	     -0.44653024	      8.55051298	      3.96970022	      7.45562800	     -6.53063252	      0.00000000	     -1.19413194	      0.93841521	     -1.05786964	     -2.55380603	     -5.03614800	     -2.59318742	     23.99133289	    102.71751691	      0.11309749	     -6.06544377	     14.46816415	     21.44628473	    100.90304097
      3.51666670	     -6.10097907	      0.33861958	     -4.40553820	     -0.02519313	      1.27310891	     -0.08374222	      0.23710425	      1.10041602	      8.22722519	      1.21316298	     11.87811848	     -0.62125583	      0.00000000	      1.86734633	     -0.45860417	      8.56961449	      4.21682634	      7.51885169	     -6.58700553	      0.00000000	     -1.46373088	      0.96058670	     -1.00958626	     -2.77028889	     -5.04947730	     -2.59062854	     23.92634869	    102.71927285	     -0.16522419	     -6.06100800	     14.48442633	     21.34812461	    100.90706527
      3.53333330	     -6.56788603	      0.31293969	     -4.49745104	     -0.02313858	      1.27176456	     -0.08367163	      0.88423082	      1.21932749	      8.45046327	      1.92716847	     12.36277129	     -0.88069907	      0.00000000	      2.60661669	     -0.50422753	      8.85850901	      5.13708338	      8.06931210	     -7.18973245	      0.00000000	     -1.38706861	      1.12288961	     -0.75734240	     -2.87221714	     -5.15294455	     -2.58978767	     23.94965735	    102.72529664	     -0.20707297	     -5.93166395	     14.53680843	     21.14080228	    100.92809649
      3.55000000	     -6.74285727	      0.36299107	     -4.56476976	     -0.02332362	      1.26533852	     -0.08522032	      1.05748451	      1.17791380	      8.39043449	      2.27886534	     12.67851531	     -1.07243366	      0.00000000	      2.94832259	     -0.39743208	      8.75078282	      5.79166754	      8.39841509	     -7.54844738	      0.00000000	     -1.60110852	      1.16311607	     -0.70378012	     -2.94316296	     -5.29210836	     -2.60427427	     23.89081127	    102.72253557	     -0.29566705	     -5.81134885	     14.58706866	     21.03962804	    100.94162169
      3.56666670	     -7.15066275	      0.38500680	     -4.62429060	     -0.01757509	      1.27103450	     -0.08308874	      1.55892728	      1.21671576	      8.52305131	      2.81807573	     13.03997058	     -1.22202510	      0.00000000	      3.49523087	     -0.40603942	      8.94425503	      6.43677380	      8.74519284	     -7.90329217	      0.00000000	     -1.83731378	      1.22604960	     -0.57773964	     -2.89431076	     -5.32185995	     -2.59989473	     23.77671978	    102.71957440	     -0.27724090	     -5.77939004	     14.66191340	     20.84344756	    100.96423251
      3.58333330	     -7.91879434	      0.37387388	     -4.84094542	     -0.01902478	      1.26053796	     -0.08558171	      2.54332574	      1.29746182	      8.61067949	      3.54753154	     13.57254649	     -1.46124055	      0.00000000	      4.55251950	     -0.35494192	      9.25129478	      7.22282857	      9.25277963	     -8.55541184	      0.00000000	     -1.37895637	      1.42333314	     -0.26096964	     -2.96243099	     -5.50520008	     -2.52161734	     23.49060196	    102.70113135	     -0.21293440	     -5.66690309	     14.95779223	     20.48436014	    101.04092047
      3.60000000	     -8.17132487	      0.47074197	     -4.93989142	     -0.01301429	      1.26983467	     -0.08364983	      2.94705671	      1.21503107	      8.45769143	      4.12904426	     13.67578669	     -1.66835155	      0.00000000	      4.97177577	     -0.22703997	      9.16647771	      7.95535724	      9.51425129	     -8.87356279	      0.00000000	     -1.87545152	      1.37020672	     -0.24487868	     -2.69393430	     -5.60553755	     -2.51881789	     23.43167714	    102.69101644	     -0.00375062	     -5.55901875	     15.04996859	     20.40784991	    101.06174781
      3.61666670	     -8.51351628	      0.49042455	     -5.09335880	     -0.01250573	      1.26808953	     -0.08310347	      3.53770505	      1.24960868	      8.48095410	      4.82290698	     13.96956830	     -1.88412606	      0.00000000	      5.64967886	     -0.14670666	      9.13425520	      9.02704743	      9.97017736	     -9.34058140	      0.00000000	     -2.46436879	      1.38822420	     -0.18160153	     -2.28080966	     -5.69299065	     -2.48895797	     23.36008277	    102.68476998	      0.42455147	     -5.54436635	     15.13164767	     20.36528818	    101.08112691
      3.63333330	     -9.57699802	      0.57146447	     -5.19775559	     -0.01118877	      1.25776643	     -0.08332575	      5.10140361	      1.35295084	      8.64245848	      5.97972097	     14.43072771	     -2.74040920	      0.00000000	      7.35399259	     -0.00296487	      9.40949373	     10.57928245	     10.49995665	    -10.60319401	      0.00000000	     -1.97644838	      1.43001099	     -0.05792658	     -2.15666989	     -5.76599704	     -2.19589428	     22.78576634	    102.65954280	      0.76338531	     -5.48585640	     15.70217600	     19.99013458	    101.20463157
      3.65000000	     -9.81935703	      0.73127700	     -5.27592674	     -0.00820722	      1.25742892	     -0.08315190	      5.86581329	      1.30135575	      8.57023486	      7.18586239	     14.66600862	     -3.02226236	      0.00000000	      8.31953261	      0.23198329	      9.24089502	     12.31767593	     10.93364038	    -11.11856231	      0.00000000	     -3.01792001	      1.22108305	     -0.11304815	     -1.51788685	     -5.78364437	     -2.14762781	     22.85222415	    102.64823652	      1.50987561	     -5.56486832	     15.78264145	     20.05100908	    101.21837878
      3.66666670	    -10.13472046	      0.84535294	     -5.40006155	     -0.00656003	      1.24972430	     -0.08434650	      6.97375672	      1.29210592	      8.56570992	      8.90903493	     15.36380538	     -3.56421423	      0.00000000	      9.57197032	      0.45731448	      9.15608698	     14.37515811	     11.79667684	    -11.82142956	      0.00000000	     -4.11299500	      1.13671475	     -0.15753375	     -0.78079373	     -5.94050865	     -2.09707738	     22.95939500	    102.63497481	      2.31366966	     -5.54077507	     15.88494489	     20.19685857	    101.23347104
      3.68333330	    -11.61983708	      1.07914904	     -5.50272556	     -0.00172567	      1.24465350	     -0.08066366	      9.66925635	      1.44184196	      9.23817525	     11.38969638	     16.13878099	     -4.86699550	      0.00000000	     12.34396637	      0.67487835	      9.24253464	     17.08675978	     12.68557890	    -12.78206574	      0.00000000	     -3.40503193	      1.04743656	     -0.25363158	     -0.47427642	     -6.00951259	     -1.56664193	     23.14425407	    102.58228077	      2.71315627	     -5.81526866	     16.59800748	     20.56164011	    101.31833596
      3.70000000	    -12.29999433	      1.25489667	     -5.63121800	      0.00268144	      1.23374606	     -0.08081550	     11.65769264	      1.59883616	      9.65799268	     14.30060427	     17.33832490	     -5.90314200	      0.00000000	     14.36224444	      0.85337436	      8.79786941	     20.10776190	     14.04709072	    -13.17958545	      0.00000000	     -4.09419686	      0.88421833	     -0.24226127	      0.23636239	     -6.17039941	     -1.07760917	     23.43582274	    102.50255722	      3.60265584	     -6.05252192	     17.09965034	     21.01202885	    101.32339707
      3.71666670	    -12.80985140	      1.44883324	     -5.70023152	      0.00396353	      1.22584794	     -0.08313517	     13.71422072	      1.73053085	     10.01692261	     17.70813130	     19.01304057	     -6.94697193	      0.00000000	     16.48231235	      1.07992588	      8.24135670	     23.70731563	     15.65124907	    -13.76533072	      0.00000000	     -5.20516602	      0.73182043	     -0.29891401	      1.31256107	     -6.43824452	     -0.75244939	     23.81553178	    102.42831496	      4.81915661	     -6.19785073	     17.37999805	     21.47885684	    101.29360288
      3.73333330	    -13.95001251	      1.75004812	     -5.76740110	      0.00364758	      1.20633843	     -0.08458706	     17.11754008	      1.88883155	     10.24582388	     22.37698279	     21.07442945	     -7.84615899	      0.00000000	     19.73509584	      1.28393956	      7.18516853	     28.13175019	     18.06991658	    -13.68597741	      0.00000000	     -5.81816272	      0.51547440	     -0.37280302	      2.35938197	     -6.73129867	     -0.21820432	     24.51890421	    102.29406088	      6.23174261	     -6.56481017	     17.78156227	     22.30509036	    101.22245779
